<svg width="512" height="512" viewBox="0 0 512 512" style="color:#ffffff" xmlns="http://www.w3.org/2000/svg" class="h-full w-full"><rect width="512" height="512" x="0" y="0" rx="30" fill="transparent" stroke="transparent" stroke-width="0" stroke-opacity="100%" paint-order="stroke"></rect><svg width="512px" height="512px" viewBox="0 0 32 32" fill="#ffffff" x="0" y="0" role="img" style="display:inline-block;vertical-align:middle" xmlns="http://www.w3.org/2000/svg"><g fill="#ffffff"><path fill="currentColor" d="M8 9H4a2 2 0 0 0-2 2v12h2v-5h4v5h2V11a2 2 0 0 0-2-2zm-4 7v-5h4v5zm18-5h3v10h-3v2h8v-2h-3V11h3V9h-8v2zm-8 12h-2V9h6a2 2 0 0 1 2 2v5a2 2 0 0 1-2 2h-4zm0-7h4v-5h-4z"/></g></svg></svg>